<svg xmlns="http://www.w3.org/2000/svg" fill="none" viewBox="0 0 24 24"><path stroke="currentColor" stroke-linecap="round" stroke-linejoin="round" d="M18 19V9a4 4 0 0 0-4-4H6a4 4 0 0 0-4 4v8a2 2 0 0 0 2 2h2"/><path stroke="currentColor" stroke-linecap="round" stroke-linejoin="round" d="M2 9h3a1 1 0 0 1 1 1v2a1 1 0 0 1-1 1H2m20 4v1a1 1 0 0 1-1 1H10v-9a1 1 0 0 1 1-1h2a1 1 0 0 1 1 1v9"/><path stroke="currentColor" stroke-linecap="round" stroke-linejoin="round" d="M8 21a2 2 0 1 0 0-4 2 2 0 0 0 0 4"/></svg>