<svg xmlns="http://www.w3.org/2000/svg" fill="none" viewBox="0 0 24 24"><path stroke="currentColor" stroke-linecap="round" stroke-linejoin="round" d="M13.33 13H8a1 1 0 0 0-1 1v7M7 3v4a1 1 0 0 0 1 1h7m-.637 9.634a2 2 0 0 0-.506.854l-.837 2.87a.5.5 0 0 0 .62.62l2.87-.837c.323-.094.616-.268.854-.506l4.013-4.009a2.124 2.124 0 1 0-3.004-3.004z"/><path stroke="currentColor" stroke-linecap="round" stroke-linejoin="round" d="M9 21H5a2 2 0 0 1-2-2V5a2 2 0 0 1 2-2h10.2a2 2 0 0 1 1.4.6l3.8 3.8a2 2 0 0 1 .6 1.4v.3"/></svg>